:SAMPLES-PER-SECOND 30
:FULLY-SPECIFIED
:DEGREES
263
root  -5.9118 40.6822 -2.29415 -4.70068 -77.8644 1.13861
RightUpLeg  8.63606 -2.86118 1.68019
RightLeg  -0.829936 -33.2197 2.3839
RightFoot  -4.14096 -0.0807799 0.618558
RightToes  -3.11842e-008 1.75238e-005 3.56266e-009
Spine  -5.93589 3.16408 4.19847
Spine1  12.7487 6.36455 -10.3614
HEad  -4.61906 -3.04236 -3.57138
LeftShoulder1  2.97283 -5.06175 -28.6612
LeftArm  -58.0786 5.32378 -44.0027
LeftForeArm  146.643 -56.4818 -163.022
LeftHand  -0.421401 -5.12386 4.94941
RightShoulder  3.25314 6.90102 25.1887
RightArm  -25.887 21.1126 35.1001
RightForeArm  155.591 66.8879 155.426
RightHand  -0.718186 9.8321 -5.85696
LeftUpLeg  3.92131 3.09171 7.14468
LeftLeg  3.38056 -1.76617 0.666289
LeftFoot  -5.51816 0.614508 -11.3906
LeftToes  4.78904e-008 1.4679e-008 1.35657e-009
264
root  -5.92198 40.6623 -2.33128 -4.42358 -76.7702 0.639832
RightUpLeg  8.87191 -2.9804 1.8019
RightLeg  -0.700774 -34.1852 2.47181
RightFoot  -4.29993 -0.0834253 0.65293
RightToes  -3.11842e-008 1.75238e-005 3.56266e-009
Spine  -5.72894 2.99026 3.26016
Spine1  12.9464 6.0451 -9.49511
HEad  -4.62878 -3.27282 -3.27202
LeftShoulder1  3.00367 -5.24133 -28.29
LeftArm  -55.0461 3.89159 -44.0191
LeftForeArm  147.488 -56.4641 -163.098
LeftHand  -0.50421 -5.50553 5.68812
RightShoulder  3.3468 7.02701 25.7296
RightArm  -26.5527 20.5936 34.5456
RightForeArm  154.681 66.5354 155.709
RightHand  -0.683939 9.32932 -5.76508
LeftUpLeg  3.61138 3.32658 7.52343
LeftLeg  4.01682 -2.47909 0.515046
LeftFoot  -5.87816 0.631945 -12.4529
LeftToes  4.78904e-008 1.4679e-008 1.35657e-009
265
root  -5.93015 40.6373 -2.31639 -3.84387 -76.3026 -0.0817261
RightUpLeg  8.8021 -3.1993 1.82302
RightLeg  -0.0646089 -34.3964 2.3452
RightFoot  -4.58806 -0.0943136 0.816792
RightToes  -3.11842e-008 1.75238e-005 3.56266e-009
Spine  -5.73284 3.02583 2.62903
Spine1  13.2572 5.85496 -8.34876
HEad  -4.45619 -3.40229 -3.11803
LeftShoulder1  3.10181 -5.49589 -28.4156
LeftArm  -52.0952 2.47179 -43.6993
LeftForeArm  148.154 -56.8319 -162.932
LeftHand  -0.454027 -5.44067 5.18132
RightShoulder  3.36501 7.03103 25.8967
RightArm  -26.7313 20.0729 34.6082
RightForeArm  154.838 66.2422 156.044
RightHand  -0.810401 9.69907 -6.61329
LeftUpLeg  3.35342 3.41306 7.68361
LeftLeg  4.53337 -3.21347 0.414242
LeftFoot  -5.5916 0.62146 -11.7154
LeftToes  4.78904e-008 1.4679e-008 1.35657e-009
266
root  -5.93258 40.5997 -2.25278 -2.87878 -75.8684 -1.17804
RightUpLeg  8.70523 -3.26752 1.97791
RightLeg  0.603473 -34.701 2.0241
RightFoot  -4.7912 -0.116991 1.16554
RightToes  -3.11842e-008 1.75238e-005 3.56266e-009
Spine  -5.53252 2.95155 2.44945
Spine1  13.2024 5.56732 -7.43206
HEad  -4.06922 -3.53214 -2.7856
LeftShoulder1  3.08636 -5.53104 -28.1023
LeftArm  -49.3251 1.13834 -43.9436
LeftForeArm  148.81 -57.4266 -162.62
LeftHand  -0.432688 -5.4365 4.94882
RightShoulder  3.40283 7.04168 26.2375
RightArm  -26.5185 19.4689 34.4818
RightForeArm  155.427 65.8886 156.484
RightHand  -0.795447 9.6739 -6.50698
LeftUpLeg  2.84643 3.01725 7.53446
LeftLeg  5.41998 -3.36247 0.614893
LeftFoot  -4.93952 0.565071 -9.54433
LeftToes  4.78904e-008 1.4679e-008 1.35657e-009
267
root  -5.94674 40.5751 -2.16426 -1.98859 -75.9798 -2.09106
RightUpLeg  8.53679 -3.13432 2.16962
RightLeg  1.11253 -34.7559 1.58983
RightFoot  -4.85516 -0.133603 1.4225
RightToes  -3.11842e-008 1.75238e-005 3.56266e-009
Spine  -5.59614 3.0271 2.05386
Spine1  13.1972 5.25806 -5.94308
HEad  -3.51151 -3.43392 -2.91883
LeftShoulder1  3.09932 -5.58566 -28.0371
LeftArm  -46.7855 0.316008 -44.088
LeftForeArm  147.796 -58.2705 -161.998
LeftHand  -0.394119 -4.97836 4.70925
RightShoulder  3.37251 7.01338 26.0273
RightArm  -25.9625 18.81 34.8001
RightForeArm  155.832 65.8234 156.596
RightHand  -0.770695 9.70013 -6.30699
LeftUpLeg  2.47607 2.45731 7.35379
LeftLeg  6.17716 -2.62478 0.916161
LeftFoot  -4.79598 0.525415 -8.67217
LeftToes  4.78904e-008 1.4679e-008 1.35657e-009
268
root  -5.97187 40.5749 -2.06449 -2.01923 -76.5 -2.04053
RightUpLeg  8.56876 -3.03146 2.0912
RightLeg  1.11088 -34.3233 1.36455
RightFoot  -4.78911 -0.141471 1.54651
RightToes  -3.11842e-008 1.75238e-005 3.56266e-009
Spine  -6.04564 3.18489 1.6183
Spine1  13.7619 5.13007 -4.69026
HEad  -3.26322 -2.36281 -3.09351
LeftShoulder1  3.00654 -5.37844 -27.7823
LeftArm  -44.6887 -0.960219 -44.4773
LeftForeArm  148.987 -59.2581 -161.44
LeftHand  -0.450344 -5.58522 5.08009
RightShoulder  3.35513 6.97014 25.9916
RightArm  -25.7015 17.9445 35.2167
RightForeArm  155.989 65.909 156.525
RightHand  -0.757327 9.34408 -6.33802
LeftUpLeg  2.50443 2.13369 7.06549
LeftLeg  6.40307 -1.79225 1.06438
LeftFoot  -4.74785 0.505467 -8.27071
LeftToes  4.78904e-008 1.4679e-008 1.35657e-009
